<?xml version="1.0" encoding="UTF-8" standalone="no"?>
<!-- Created with Inkscape (http://www.inkscape.org/) -->

<svg
   width="37.041561mm"
   height="23.41563mm"
   viewBox="0 0 37.041561 23.41563"
   version="1.1"
   id="svg8041"
   xml:space="preserve"
   inkscape:version="1.2 (dc2aeda, 2022-05-15)"
   sodipodi:docname="icon.svg"
   xmlns:inkscape="http://www.inkscape.org/namespaces/inkscape"
   xmlns:sodipodi="http://sodipodi.sourceforge.net/DTD/sodipodi-0.dtd"
   xmlns="http://www.w3.org/2000/svg"
   xmlns:svg="http://www.w3.org/2000/svg"><sodipodi:namedview
     id="namedview8043"
     pagecolor="#ffffff"
     bordercolor="#000000"
     borderopacity="0.25"
     inkscape:showpageshadow="2"
     inkscape:pageopacity="0.0"
     inkscape:pagecheckerboard="0"
     inkscape:deskcolor="#d1d1d1"
     inkscape:document-units="mm"
     showgrid="false"
     inkscape:zoom="2.663006"
     inkscape:cx="44.8741"
     inkscape:cy="15.208377"
     inkscape:window-width="1482"
     inkscape:window-height="823"
     inkscape:window-x="0"
     inkscape:window-y="44"
     inkscape:window-maximized="0"
     inkscape:current-layer="layer1" /><defs
     id="defs8038" /><g
     inkscape:label="Layer 1"
     inkscape:groupmode="layer"
     id="layer1"
     transform="translate(-73.310428,-131.55484)"><path
       style="fill:#0083b4;fill-opacity:1;stroke-width:0.264583"
       d="m 83.355738,151.93664 c 1.66388,-1.66861 2.97162,-3.07638 2.9061,-3.12839 -0.0655,-0.052 -0.51756,-0.36995 -1.00454,-0.70653 l -0.88541,-0.61197 -2.8849,2.87595 -2.88489,2.87595 v -3.59783 c 0,-3.06577 -0.0709,-3.69114 -0.47971,-4.22882 -0.26384,-0.34704 -1.18454,-1.64302 -2.04601,-2.87995 -1.16363,-1.67079 -1.39741,-2.14068 -0.90936,-1.82776 1.81774,1.16543 15.79744,9.59929 16.26339,9.81159 0.44041,0.20067 1.31314,-0.22379 4.76943,-2.31966 2.32671,-1.4109 5.848802,-3.54519 7.826872,-4.74287 1.97807,-1.19767 3.94057,-2.40094 4.36112,-2.67392 0.65386,-0.42444 0.53773,-0.17056 -0.80168,1.75262 -0.86147,1.23693 -1.78217,2.53291 -2.04601,2.87995 -0.40877,0.53768 -0.47971,1.16305 -0.47971,4.22882 v 3.59783 l -2.89324,-2.88426 -2.893232,-2.88427 -0.97072,0.7404 -0.97071,0.7404 2.999742,3.00827 2.99974,3.00828 H 91.831258 80.330518 Z m 5.56511,-8.58378 c -1.38245,-0.55418 -5.46034,-2.16576 -9.06198,-3.58128 l -6.54844,-2.57367 0.0132,-2.82154 0.0132,-2.82153 1.02002,1.9943 c 0.99301,1.94147 1.05809,2.00629 2.45742,2.44739 0.79058,0.24921 1.51624,0.4531 1.61259,0.4531 0.0964,0 0.17519,-0.59531 0.17519,-1.32291 v -1.32292 h 13.22916 13.229172 v 1.32292 c 0,0.7276 0.0788,1.32291 0.17518,1.32291 0.0964,0 0.82202,-0.20389 1.61259,-0.4531 1.39934,-0.4411 1.46442,-0.50592 2.45743,-2.44739 l 1.02001,-1.9943 0.0132,2.81614 0.0132,2.81613 -1.78594,0.71983 c -6.20831,2.5023 -16.544602,6.47806 -16.812702,6.46686 -0.17549,-0.007 -1.45017,-0.46675 -2.83261,-1.02094 z"
       id="path8537" /></g></svg>
